<svg width="111" height="90" viewBox="0 0 111 90" fill="none" xmlns="http://www.w3.org/2000/svg">
<path d="M15.318 89.3502H96.9981C101.387 89.3502 104.787 88.0805 107.198 85.541C109.609 83.0016 110.815 79.217 110.815 74.1874V24.0523C110.815 19.0226 109.54 15.2467 106.991 12.7246C104.442 10.2025 100.61 8.9414 95.4971 8.9414H48.6309C46.9744 8.9414 45.5836 8.71997 44.4583 8.2771C43.333 7.83423 42.1539 7.10347 40.9211 6.0848L37.922 3.6137C36.3021 2.24943 34.7415 1.3061 33.2402 0.783699C31.7389 0.261232 29.7903 0 27.3945 0H13.4593C9.1901 0 5.8796 1.21907 3.5278 3.6572C1.17593 6.09534 0 9.76974 0 14.6804V74.1874C0 79.2311 1.28343 83.0192 3.8503 85.5516C6.41717 88.084 10.2397 89.3502 15.318 89.3502ZM15.4426 81.4449C13.0026 81.4449 11.1278 80.8073 9.8181 79.5321C8.50837 78.2569 7.8535 76.3476 7.8535 73.8041V15.0954C7.8535 12.7055 8.47337 10.8975 9.7131 9.6715C10.9528 8.44543 12.7504 7.8324 15.1059 7.8324H25.3752C27.0105 7.8324 28.3856 8.05734 29.5003 8.5072C30.6151 8.95707 31.7959 9.6984 33.0426 10.7312L36.0524 13.2023C37.6027 14.5385 39.1494 15.4713 40.6926 16.0007C42.2358 16.5301 44.2088 16.7948 46.6115 16.7948H95.3731C97.7918 16.7948 99.6614 17.4411 100.982 18.7336C102.302 20.0261 102.962 21.944 102.962 24.4874V73.8558C102.962 76.3648 102.302 78.2569 100.982 79.5321C99.6614 80.8073 97.7918 81.4449 95.3731 81.4449H15.4426ZM4.7759 34.6467H106.03V27.2589H4.7759V34.6467Z" fill="#000000"/>
</svg>
