<svg width="95" height="109" viewBox="0 0 95 109" fill="none" xmlns="http://www.w3.org/2000/svg">
<path d="M24.9083 108.691H69.6486C73.1343 108.691 75.9635 107.648 78.1361 105.562C80.3087 103.475 81.4919 100.679 81.6855 97.1732L85.0107 26.1901H90.8785C91.8663 26.1901 92.716 25.824 93.4274 25.0917C94.1388 24.3594 94.4944 23.5029 94.4944 22.5222C94.4944 21.5273 94.1371 20.6672 93.4224 19.942C92.7072 19.2168 91.8593 18.8542 90.8785 18.8542H3.62674C2.67337 18.8542 1.83057 19.2186 1.09834 19.9474C0.366113 20.6761 0 21.5344 0 22.5222C0 23.51 0.366113 24.3683 1.09834 25.097C1.83057 25.8257 2.67337 26.1901 3.62674 26.1901H9.49434L12.882 97.2249C13.0411 100.731 14.1966 103.519 16.3484 105.587C18.5003 107.656 21.3536 108.691 24.9083 108.691ZM25.5706 101.355C24.1986 101.355 23.036 100.883 22.0828 99.9407C21.1297 98.998 20.6116 97.8062 20.5284 96.3652L17.1514 26.1901H77.1773L73.9663 96.3652C73.9177 97.8062 73.4168 98.998 72.4636 99.9407C71.5104 100.883 70.3098 101.355 68.8617 101.355H25.5706ZM32.7863 92.9746C33.7122 92.9746 34.4583 92.7051 35.0247 92.1662C35.5912 91.6272 35.8572 90.9363 35.8227 90.0935L34.3158 37.8853C34.3158 37.008 34.0291 36.312 33.4556 35.7973C32.8822 35.2826 32.1568 35.0253 31.2795 35.0253C30.3606 35.0253 29.6248 35.2913 29.0721 35.8232C28.5195 36.3551 28.2431 37.0495 28.2431 37.9064L29.7499 90.1041C29.7845 90.9814 30.0763 91.6792 30.6255 92.1973C31.1747 92.7155 31.895 92.9746 32.7863 92.9746ZM47.2526 92.9746C48.206 92.9746 48.9677 92.7068 49.5376 92.1714C50.1076 91.6359 50.3925 90.9433 50.3925 90.0935V37.9064C50.3925 37.0566 50.1076 36.364 49.5376 35.8285C48.9677 35.293 48.206 35.0253 47.2526 35.0253C46.3338 35.0253 45.5808 35.293 44.9935 35.8285C44.4063 36.364 44.1127 37.0566 44.1127 37.9064V90.0935C44.1127 90.9433 44.4063 91.6359 44.9935 92.1714C45.5808 92.7068 46.3338 92.9746 47.2526 92.9746ZM61.7599 92.9957C62.6169 92.9957 63.3303 92.7348 63.9002 92.2131C64.4702 91.6914 64.7724 90.9919 64.807 90.1146L66.2621 37.917C66.2965 37.0601 66.027 36.3657 65.4536 35.8337C64.8802 35.3018 64.1375 35.0358 63.2256 35.0358C62.3413 35.0358 61.621 35.2931 61.0648 35.8078C60.5086 36.3225 60.2132 37.0185 60.1788 37.8959L58.7237 90.1041C58.6891 90.9469 58.9482 91.6395 59.5009 92.1819C60.0537 92.7244 60.8067 92.9957 61.7599 92.9957ZM25.8458 22.3152H33.5957V11.9006C33.5957 10.4864 34.0377 9.36347 34.9215 8.5318C35.8053 7.70007 36.9892 7.2842 38.4732 7.2842H55.9697C57.4191 7.2842 58.5875 7.70007 59.4748 8.5318C60.3621 9.36347 60.8057 10.4864 60.8057 11.9006V22.3152H68.6076V11.3832C68.6076 7.8412 67.5232 5.0585 65.3544 3.0351C63.1856 1.0117 60.2229 0 56.4662 0H37.925C34.1753 0 31.2247 1.0117 29.0731 3.0351C26.9216 5.0585 25.8458 7.8412 25.8458 11.3832V22.3152Z" fill="#000000"/>
</svg>