<svg width="78" height="78" viewBox="0 0 78 78" fill="none" xmlns="http://www.w3.org/2000/svg">
<path d="M12.53 73.1347L67.7909 17.9365L60.5199 10.6097L5.23154 65.8084L0.461642 76.0069C0.267842 76.4824 0.366042 76.9268 0.756242 77.3401C1.14638 77.7533 1.59071 77.8746 2.08924 77.7038L12.53 73.1347ZM71.7029 14.1213L76.079 9.77301C77.2239 8.65114 77.8183 7.52477 77.8621 6.39391C77.906 5.26304 77.4293 4.18751 76.432 3.16731L75.3027 2.00361C74.3011 1.02494 73.2302 0.582874 72.09 0.677407C70.9498 0.771941 69.8258 1.35007 68.7178 2.41181L64.3073 6.76001L71.7029 14.1213Z" fill="black"/>
</svg>
