<svg width="131" height="73" viewBox="0 0 131 73" fill="none" xmlns="http://www.w3.org/2000/svg">
<path d="M7.31833 72.7926C12.0847 72.7926 15.7008 71.6421 18.1667 69.341C20.6326 67.0399 22.426 63.1532 23.5468 57.6807L29.1591 30.9912H38.0144C39.4163 30.9912 40.5385 30.639 41.3809 29.9345C42.2234 29.2301 42.6446 28.2597 42.6446 27.0233C42.6446 25.9665 42.3251 25.129 41.6861 24.5108C41.0472 23.8926 40.1683 23.5835 39.0495 23.5835H30.7444L32.1277 17.0102C32.7514 13.9199 33.6658 11.6889 34.871 10.3171C36.0762 8.94547 38.033 8.25964 40.7412 8.25964C41.1573 8.25964 41.5508 8.2459 41.9218 8.21844C42.2928 8.19097 42.6065 8.17724 42.8627 8.17724C45.225 7.93564 46.4061 6.76504 46.4061 4.66544C46.4061 3.3319 45.8272 2.33707 44.6693 1.68094C43.5115 1.02474 41.7638 0.69664 39.4263 0.69664C34.7636 0.69664 31.1475 1.9144 28.578 4.34994C26.0086 6.78547 24.198 10.605 23.1462 15.8085L21.4831 23.5835H15.4169C14.0151 23.5835 12.8894 23.9357 12.0399 24.6401C11.1905 25.3446 10.7657 26.3115 10.7657 27.5409C10.7657 28.5977 11.087 29.437 11.7294 30.0587C12.3718 30.6804 13.256 30.9912 14.3818 30.9912H19.9083L14.5653 56.4787C13.8726 59.6727 12.9236 61.9383 11.7183 63.2755C10.5131 64.6126 8.59436 65.2812 5.96223 65.2812C5.60809 65.2812 5.28006 65.2864 4.97813 65.2966C4.67619 65.3069 4.39709 65.312 4.14083 65.312C3.00796 65.4844 2.15143 65.8694 1.57123 66.4668C0.991027 67.0642 0.700928 67.8671 0.700928 68.8754C0.700928 70.209 1.25396 71.1952 2.36003 71.8342C3.46609 72.4731 5.11886 72.7926 7.31833 72.7926ZM65.6316 72.8665C66.4602 72.8665 67.1405 72.6386 67.6725 72.1827C68.2045 71.7267 68.4704 71.0981 68.4704 70.2968C68.4704 69.7646 68.2251 69.0426 67.7344 68.1307C64.7763 63.4941 62.4826 58.5533 60.8532 53.3081C59.224 48.0629 58.4093 42.5713 58.4093 36.8333C58.4093 31.3056 59.1995 25.844 60.7799 20.4486C62.3603 15.0532 64.6993 10.0509 67.7967 5.44174C68.2459 4.54408 68.4704 3.81184 68.4704 3.24504C68.4704 2.47831 68.2045 1.85837 67.6725 1.38524C67.1405 0.912105 66.4602 0.675537 65.6316 0.675537C64.8373 0.675537 64.0914 0.891337 63.394 1.32294C62.6966 1.75454 61.9646 2.50547 61.1978 3.57574C57.5132 8.22007 54.746 13.3795 52.8962 19.054C51.0465 24.7286 50.1216 30.6378 50.1216 36.7814C50.1216 42.9252 51.0342 48.794 52.8593 54.388C54.6844 59.9821 57.4639 65.1885 61.1978 70.0074C61.9576 71.0776 62.6879 71.8217 63.3888 72.2396C64.0897 72.6576 64.8373 72.8665 65.6316 72.8665ZM75.8786 59.9071C76.68 59.9071 77.3793 59.7517 77.9767 59.4408C78.5741 59.13 79.1664 58.5359 79.7536 57.6586L90.481 42.3959H90.657L101.572 57.8972C102.214 58.7604 102.825 59.3112 103.405 59.5496C103.986 59.788 104.573 59.9071 105.167 59.9071C106.327 59.9071 107.261 59.5514 107.969 58.8398C108.677 58.1284 109.031 57.265 109.031 56.2496C109.031 55.3104 108.741 54.4366 108.161 53.6283L95.651 36.6653L108.119 19.9346C108.754 19.0708 109.072 18.1484 109.072 17.1676C109.072 16.1452 108.697 15.2991 107.948 14.6291C107.199 13.9592 106.334 13.6242 105.353 13.6242C104.455 13.6242 103.731 13.8263 103.182 14.2304C102.633 14.6346 102.114 15.1925 101.623 15.9043L91.33 30.977H91.102L80.7063 15.8526C80.2572 15.1408 79.7253 14.5915 79.1105 14.2046C78.4959 13.8177 77.7189 13.6242 76.7795 13.6242C75.6467 13.6242 74.7004 14.0041 73.9406 14.7638C73.1809 15.5235 72.801 16.3938 72.801 17.3746C72.801 18.0998 72.903 18.6921 73.1068 19.1515C73.3107 19.6109 73.5785 20.0653 73.9101 20.5145L85.757 36.4066L73.1537 53.8353C72.5941 54.5817 72.3142 55.4934 72.3142 56.5706C72.3142 57.524 72.6613 58.3185 73.3555 58.9539C74.0498 59.5894 74.8908 59.9071 75.8786 59.9071ZM115.485 72.8665C116.314 72.8665 117.07 72.6576 117.753 72.2396C118.437 71.8217 119.176 71.0776 119.97 70.0074C123.704 65.1885 126.475 59.9821 128.283 54.388C130.091 48.794 130.995 42.9252 130.995 36.7814C130.995 30.6378 130.072 24.7286 128.225 19.054C126.379 13.3795 123.627 8.22007 119.97 3.57574C119.176 2.50547 118.437 1.75454 117.753 1.32294C117.07 0.891337 116.314 0.675537 115.485 0.675537C114.656 0.675537 113.978 0.912105 113.449 1.38524C112.921 1.85837 112.657 2.47831 112.657 3.24504C112.657 3.81184 112.895 4.54408 113.371 5.44174C116.469 10.0509 118.799 15.0532 120.362 20.4486C121.925 25.844 122.707 31.3056 122.707 36.8333C122.707 42.5713 121.892 48.0629 120.263 53.3081C118.634 58.5533 116.34 63.4941 113.382 68.1307C112.899 69.0426 112.657 69.7646 112.657 70.2968C112.657 71.0636 112.921 71.6835 113.449 72.1567C113.978 72.6299 114.656 72.8665 115.485 72.8665Z" fill="#000001"/>
</svg>
