<svg width="111" height="110" viewBox="0 0 111 110" fill="none" xmlns="http://www.w3.org/2000/svg">
<path d="M55.8619 102.537C56.4856 102.537 57.1093 102.507 57.733 102.448C58.3567 102.39 58.9942 102.35 59.6454 102.329L62.427 107.653C62.7037 108.207 63.0995 108.608 63.6145 108.856C64.1295 109.105 64.7158 109.188 65.3735 109.105C66.7083 108.884 67.469 108.085 67.6557 106.709L68.5069 100.783C69.7056 100.443 70.9009 100.053 72.0928 99.6136C73.2847 99.1736 74.4695 98.7041 75.6472 98.205L80.0066 102.169C80.9676 103.11 82.081 103.231 83.3468 102.533C84.4395 101.89 84.8683 100.873 84.6331 99.4827L83.3776 93.6396C84.4032 92.9328 85.4097 92.181 86.397 91.3841C87.3844 90.5873 88.318 89.7418 89.1979 88.8477L94.6779 91.0791C95.9499 91.6121 97.0496 91.3354 97.9769 90.2492C98.3649 89.8063 98.5846 89.2893 98.6359 88.6982C98.6879 88.1071 98.5269 87.5486 98.1529 87.0227L95.0089 81.9474C95.7296 80.9358 96.3929 79.8688 96.9989 78.7464C97.6056 77.6239 98.1859 76.491 98.7399 75.3477L104.718 75.6486C105.369 75.6557 105.939 75.4968 106.43 75.1719C106.921 74.8469 107.266 74.3835 107.467 73.7816C107.702 73.1726 107.727 72.5916 107.54 72.0386C107.353 71.4855 107.014 71.0083 106.523 70.6069L101.822 66.9118C102.141 65.72 102.416 64.4953 102.648 63.2377C102.88 61.9801 103.058 60.7103 103.183 59.4283L108.808 57.6331C110.136 57.1558 110.8 56.2705 110.8 54.9771C110.8 53.6493 110.136 52.7467 108.808 52.2693L103.183 50.5153C103.058 49.1989 102.878 47.9205 102.643 46.6801C102.407 45.4396 102.133 44.2062 101.822 42.9799L106.523 39.2954C107.008 38.9012 107.335 38.4361 107.504 37.9003C107.673 37.3645 107.661 36.7921 107.467 36.1833C107.266 35.5743 106.921 35.109 106.43 34.7876C105.939 34.4662 105.369 34.3227 104.718 34.3573L98.7399 34.5959C98.1792 33.4181 97.5972 32.2784 96.9939 31.1768C96.3912 30.075 95.7296 29.0148 95.0089 27.9962L98.1529 22.9314C98.5202 22.4054 98.6779 21.8573 98.6259 21.2871C98.5739 20.7167 98.3576 20.2067 97.9769 19.7569C97.0496 18.6361 95.9499 18.3421 94.6779 18.875L89.1979 21.0547C88.318 20.1951 87.3844 19.3583 86.397 18.5442C85.4097 17.73 84.4032 16.9731 83.3776 16.2734L84.6331 10.482C84.8683 9.02256 84.4395 8.00242 83.3468 7.42155C82.0879 6.72302 80.9745 6.85782 80.0066 7.82595L75.6472 11.6976C74.4695 11.1983 73.2847 10.7391 72.0928 10.32C70.9009 9.90075 69.7056 9.50425 68.5069 9.13045L67.6557 3.25565C67.469 1.91372 66.7047 1.11142 65.3628 0.848754C64.7123 0.772821 64.1295 0.859287 63.6145 1.10815C63.0995 1.35702 62.7037 1.73739 62.427 2.24925L59.6454 7.63605C58.9942 7.58745 58.3567 7.54925 57.733 7.52145C57.1093 7.49365 56.4856 7.47975 55.8619 7.47975C55.1833 7.47975 54.5425 7.49365 53.9396 7.52145C53.3367 7.54925 52.7061 7.58745 52.0478 7.63605L49.2145 2.24925C48.6336 1.12912 47.6515 0.662288 46.268 0.848754C44.9332 1.11142 44.1897 1.91372 44.0376 3.25565L43.1865 9.11975C41.9532 9.49362 40.7406 9.88328 39.5487 10.2887C38.3568 10.6943 37.1893 11.1639 36.0461 11.6976L31.6349 7.83656C30.6944 6.86849 29.581 6.73015 28.2947 7.42155C27.202 8.00242 26.7904 9.02256 27.06 10.482L28.2639 16.2734C27.2382 16.9731 26.2317 17.73 25.2444 18.5442C24.2571 19.3583 23.3235 20.1951 22.4436 21.0547L17.0049 18.875C15.7398 18.3421 14.6436 18.6361 13.7163 19.7569C13.301 20.2067 13.0743 20.7167 13.0362 21.2871C12.9981 21.8573 13.1453 22.3846 13.4776 22.8689L16.633 27.9962C15.9193 29.0148 15.2592 30.075 14.6527 31.1768C14.0462 32.2784 13.4624 33.4181 12.9013 34.5959L6.92321 34.3573C6.27267 34.3227 5.70204 34.4662 5.21131 34.7876C4.72051 35.109 4.37478 35.5743 4.17411 36.1833C3.95944 36.7921 3.93854 37.3645 4.11141 37.9003C4.28421 38.4361 4.63708 38.9012 5.17001 39.2954L9.81981 42.9799C9.50801 44.2062 9.23257 45.4396 8.99351 46.6801C8.75451 47.9205 8.58991 49.1953 8.49971 50.5047L2.83311 52.2693C1.53275 52.7396 0.882568 53.6422 0.882568 54.9771C0.882568 56.312 1.53275 57.1973 2.83311 57.6331L8.49971 59.439C8.58991 60.7209 8.75274 61.9889 8.98821 63.2431C9.22368 64.4971 9.50088 65.72 9.81981 66.9118L5.17001 70.6069C4.64408 71.0013 4.29467 71.4732 4.12181 72.0228C3.94894 72.5723 3.96638 73.1586 4.17411 73.7816C4.37478 74.3835 4.72051 74.8469 5.21131 75.1719C5.70204 75.4968 6.27267 75.6557 6.92321 75.6486L12.9013 75.3477C13.4554 76.491 14.0374 77.6239 14.6474 78.7464C15.2574 79.8688 15.9158 80.9358 16.6226 81.9474L13.4882 87.0227C13.1488 87.5486 12.9964 88.1071 13.0309 88.6982C13.0654 89.2893 13.2939 89.8063 13.7163 90.2492C14.6436 91.3354 15.7398 91.6121 17.0049 91.0791L22.4436 88.8477C23.3235 89.7418 24.2571 90.5873 25.2444 91.3841C26.2317 92.181 27.2382 92.9328 28.2639 93.6396L27.06 99.4827C26.7904 100.873 27.202 101.89 28.2947 102.533C29.5535 103.224 30.6669 103.103 31.6349 102.169L36.0355 98.205C37.1788 98.7041 38.3481 99.1736 39.5434 99.6136C40.7388 100.053 41.9532 100.447 43.1865 100.793L44.0376 106.709C44.1897 108.085 44.9367 108.884 46.2786 109.105C46.9291 109.188 47.5119 109.105 48.0269 108.856C48.5419 108.608 48.9378 108.207 49.2145 107.653L52.0478 102.329C52.692 102.35 53.3191 102.39 53.929 102.448C54.539 102.507 55.1833 102.537 55.8619 102.537ZM55.8619 95.1078C50.2526 95.1078 45.0481 94.0742 40.2486 92.0069C35.4491 89.9396 31.247 87.0724 27.6422 83.4053C24.0375 79.7382 21.2309 75.4824 19.2224 70.638C17.2139 65.7934 16.2097 60.5904 16.2097 55.0289C16.2097 49.4328 17.2139 44.2039 19.2224 39.3422C21.2309 34.4804 24.0375 30.216 27.6422 26.5489C31.247 22.8818 35.4491 20.0164 40.2486 17.9526C45.0481 15.8888 50.2526 14.8568 55.8619 14.8568C61.4438 14.8568 66.6345 15.8888 71.434 17.9526C76.2335 20.0164 80.4357 22.8818 84.0404 26.5489C87.6452 30.216 90.4537 34.4804 92.4659 39.3422C94.4779 44.2039 95.4839 49.4328 95.4839 55.0289C95.4839 60.5904 94.4779 65.7934 92.4659 70.638C90.4537 75.4824 87.6452 79.7382 84.0404 83.4053C80.4357 87.0724 76.2335 89.9396 71.434 92.0069C66.6345 94.0742 61.4438 95.1078 55.8619 95.1078ZM55.7383 67.9507C58.5487 67.9507 61.037 67.1162 63.2033 65.4473C65.3696 63.7784 67.0087 61.3733 68.1204 58.2321H100.139L100.077 51.8679H68.1098C66.977 48.7821 65.3292 46.4204 63.1664 44.783C61.0036 43.1455 58.5276 42.3268 55.7383 42.3268C55.3012 42.3268 54.8211 42.3632 54.298 42.436C53.775 42.5088 53.1157 42.6388 52.3201 42.8262L36.2585 15.3052L30.5471 18.5285L46.8263 46.267C45.5112 47.6708 44.5385 49.1083 43.908 50.5793C43.2775 52.0503 42.9623 53.5856 42.9623 55.1851C42.9623 56.7021 43.2759 58.1842 43.9031 59.6314C44.5304 61.0784 45.5121 62.5212 46.8484 63.9596L30.0506 91.3962L35.6587 94.7652L52.3423 67.4934C53.0963 67.694 53.745 67.8203 54.2885 67.8725C54.8319 67.9246 55.3152 67.9507 55.7383 67.9507ZM49.8957 55.1334C49.8957 53.4635 50.4916 52.0672 51.6835 50.9444C52.8754 49.8216 54.258 49.2602 55.8314 49.2602C57.4737 49.2602 58.8907 49.8216 60.0826 50.9444C61.2744 52.0672 61.8703 53.4635 61.8703 55.1334C61.8703 56.7758 61.2744 58.1774 60.0826 59.3382C58.8907 60.499 57.4737 61.0795 55.8314 61.0795C54.258 61.0795 52.8754 60.499 51.6835 59.3382C50.4916 58.1774 49.8957 56.7758 49.8957 55.1334Z" fill="#000001"/>
</svg>
