<svg width="110" height="92" viewBox="0 0 110 92" fill="none" xmlns="http://www.w3.org/2000/svg">
<path d="M0.640991 82.9816C0.640991 84.9425 1.19689 86.3495 2.30869 87.2024C3.42049 88.0554 4.70159 88.4819 6.15199 88.4819C6.99479 88.4819 7.79782 88.2816 8.56109 87.881C9.32429 87.4804 10.1756 86.9794 11.1149 86.3781C13.807 84.5753 16.7608 83.147 19.9762 82.0932C23.1915 81.0394 26.4806 80.5297 29.8435 80.5643C33.3767 80.5643 36.832 81.2244 40.2093 82.5447C43.5866 83.865 46.6392 85.831 49.3672 88.4428C50.4375 89.4166 51.3991 90.0934 52.2521 90.4733C53.1052 90.8531 53.9703 91.0431 54.8476 91.0431C55.7594 91.0431 56.6418 90.8531 57.4949 90.4733C58.3479 90.0934 59.2922 89.4166 60.3279 88.4428C63.063 85.838 66.1157 83.8737 69.486 82.5499C72.8563 81.2262 76.3116 80.5643 79.8519 80.5643C83.2492 80.5297 86.5556 81.0394 89.7711 82.0932C92.9864 83.147 95.9228 84.5753 98.5801 86.3781C99.5128 86.9794 100.362 87.4804 101.129 87.881C101.896 88.2816 102.714 88.4819 103.584 88.4819C105 88.4819 106.266 88.0554 107.381 87.2024C108.496 86.3495 109.054 84.9425 109.054 82.9816V16.7316C109.054 16.3022 109.021 15.9025 108.955 15.5325C108.89 15.1625 108.732 14.7733 108.483 14.365C107.022 11.8319 104.885 9.50845 102.071 7.39465C99.2578 5.28079 95.9394 3.58742 92.1161 2.31455C88.2924 1.04162 84.1353 0.405151 79.6448 0.405151C74.3269 0.405151 69.4823 1.35412 65.1111 3.25205C60.7399 5.14999 57.3187 7.60549 54.8476 10.6186C52.3765 7.60549 48.9554 5.14999 44.5842 3.25205C40.213 1.35412 35.3684 0.405151 30.0503 0.405151C25.553 0.405151 21.3944 1.04162 17.5743 2.31455C13.7543 3.58742 10.4375 5.28079 7.62389 7.39465C4.81029 9.50845 2.67312 11.8319 1.21239 14.365C0.963191 14.7733 0.805658 15.1625 0.739791 15.5325C0.673924 15.9025 0.640991 16.3022 0.640991 16.7316V82.9816ZM8.49449 78.792V17.7974C10.4748 14.9364 13.4388 12.6296 17.3865 10.877C21.3342 9.12429 25.5554 8.24796 30.0503 8.24796C34.677 8.24796 38.879 9.14678 42.6563 10.9445C46.4336 12.7421 49.1885 15.1376 50.9209 18.131V79.6451C48.4434 77.6232 45.3676 75.9552 41.6935 74.6409C38.0194 73.3267 34.1383 72.6696 30.0503 72.6696C25.8026 72.6696 21.8003 73.2241 18.0434 74.3332C14.2865 75.4422 11.1036 76.9285 8.49449 78.792ZM58.7744 79.6451V18.131C60.5068 15.1376 63.2617 12.7421 67.039 10.9445C70.8163 9.14678 75.0183 8.24796 79.6448 8.24796C84.1329 8.24796 88.3523 9.12429 92.3031 10.877C96.2544 12.6296 99.2204 14.9364 101.201 17.7974V78.792C98.6331 76.9285 95.4604 75.4422 91.6831 74.3332C87.9054 73.2241 83.8927 72.6696 79.6448 72.6696C75.5913 72.6696 71.7189 73.3267 68.0276 74.6409C64.3363 75.9552 61.2519 77.6232 58.7744 79.6451Z" fill="black"/>
</svg>
